Coordinates
version=1
nRows=15
nColumns=34
inDegrees=yes

Units are S.I. units (second, meters, Newtons, ...)
If the header above contains a line with 'inDegrees', this indicates whether rotational values are in degrees (yes) or radians (no).

endheader
time	pelvis_tilt	pelvis_list	pelvis_rotation	pelvis_tx	pelvis_ty	pelvis_tz	hip_flexion_r	hip_adduction_r	hip_rotation_r	knee_angle_r	ankle_angle_r	subtalar_angle_r	mtp_angle_r	hip_flexion_l	hip_adduction_l	hip_rotation_l	knee_angle_l	ankle_angle_l	subtalar_angle_l	mtp_angle_l	lumbar_extension	lumbar_bending	lumbar_rotation	arm_flex_r	arm_add_r	arm_rot_r	elbow_flex_r	pro_sup_r	arm_flex_l	arm_add_l	arm_rot_l	elbow_flex_l	pro_sup_l
      1.16666670	     -1.47131308	      1.98340677	     -2.33974462	      1.82270306	      0.91926515	     -0.16656468	     -1.87069961	     -6.67133078	      0.78892816	      0.00000000	      2.81422296	    -17.45091574	      0.00000000	     -3.70159189	     -4.14031717	     -4.17012256	      0.75836445	      2.62666619	     -4.99771381	      0.00000000	     -8.73636301	     -0.89418462	      0.16087893	     10.52353108	     -4.62923776	     35.51158198	     80.59743199	     88.55121549	      8.30840296	     -9.45241469	     33.54541974	     65.61433287	     81.67672731
      1.18333330	     -1.47418564	      1.98442897	     -2.34116709	      1.82260435	      0.91878003	     -0.16653942	     -1.87436411	     -6.67035585	      0.78874504	      0.00000000	      2.81449499	    -17.45146612	      0.00000000	     -3.70241629	     -4.14055671	     -4.17011659	      0.75785421	      2.62658137	     -4.99734961	      0.00000000	     -8.73669533	     -0.89374801	      0.15959547	     10.52262381	     -4.62895599	     35.51152215	     80.59710958	     88.55075270	      8.30935326	     -9.45193969	     33.54586441	     65.61439744	     81.67664016
      1.20000000	     -1.48238118	      1.98608835	     -2.34354938	      1.82236296	      0.91898842	     -0.16655186	     -1.88004351	     -6.67095116	      0.78860595	      0.00000000	      2.81491755	    -17.45222690	      0.00000000	     -3.70394463	     -4.14314662	     -4.17013083	      0.75723867	      2.62664352	     -4.99703726	      0.00000000	     -8.73642868	     -0.89310881	      0.15798715	     10.52135288	     -4.62850454	     35.51151260	     80.59687075	     88.55022490	      8.31038506	     -9.45140624	     33.54641558	     65.61456182	     81.67654568
      1.21666670	     -1.46393094	      1.89827343	     -2.27198778	      1.82231742	      0.91885985	     -0.16651939	     -1.94206522	     -6.56612846	      0.87387744	      0.00000000	      2.88713047	    -17.59393376	      0.00000000	     -3.80428396	     -4.25896794	     -4.17255076	      0.56396047	      2.61478284	     -4.87891604	      0.00000000	     -8.73749931	     -0.73896381	     -0.05874084	     10.32850327	     -4.48077051	     35.47236563	     80.54446695	     88.39631509	      8.41760450	     -9.44852366	     33.70277544	     65.58499629	     81.64790989
      1.23333330	     -1.46150569	      1.89880955	     -2.27292928	      1.82239349	      0.91873161	     -0.16653693	     -1.94127562	     -6.56542554	      0.87388318	      0.00000000	      2.88708214	    -17.59417853	      0.00000000	     -3.80370637	     -4.25917886	     -4.17223329	      0.56397446	      2.61458172	     -4.87846341	      0.00000000	     -8.73765069	     -0.73891178	     -0.05887902	     10.32863803	     -4.48084302	     35.47200745	     80.54434875	     88.39592941	      8.41742578	     -9.44877555	     33.70314919	     65.58476446	     81.64783443
      1.25000000	     -1.45824383	      1.90097198	     -2.27471559	      1.82253239	      0.91851260	     -0.16662856	     -1.94027528	     -6.56510445	      0.87415259	      0.00000000	      2.88693008	    -17.59444849	      0.00000000	     -3.80303866	     -4.26197565	     -4.17180800	      0.56410551	      2.61424998	     -4.87779149	      0.00000000	     -8.73800842	     -0.73881375	     -0.05945625	     10.32858923	     -4.48111638	     35.47145297	     80.54411623	     88.39534941	      8.41723196	     -9.44912044	     33.70374072	     65.58439402	     81.64772387
      1.26666670	     -1.45623242	      1.90300134	     -2.27700336	      1.82262559	      0.91823262	     -0.16681254	     -1.94018337	     -6.56612680	      0.87472331	      0.00000000	      2.88668214	    -17.59462802	      0.00000000	     -3.80275968	     -4.26666161	     -4.17143611	      0.56438099	      2.61388533	     -4.87708541	      0.00000000	     -8.73839894	     -0.73880112	     -0.06039896	     10.32824185	     -4.48153533	     35.47087413	     80.54383749	     88.39473050	      8.41701711	     -9.44947187	     33.70442090	     65.58397892	     81.64760911
      1.28333330	     -1.43588322	      1.84733879	     -2.33519738	      1.82265113	      0.91833624	     -0.16704219	     -1.95056546	     -6.53146389	      0.96702116	      0.00000000	      2.85521226	    -17.60046730	      0.00000000	     -3.82361094	     -4.32206535	     -4.15136513	      0.60698427	      2.59315666	     -4.81720911	      0.00000000	     -8.74153660	     -0.69211533	     -0.17316254	     10.28028897	     -4.54183078	     35.41026766	     80.52297499	     88.33037163	      8.38231978	     -9.45853524	     33.78472751	     65.55000914	     81.63631185
      1.30000000	     -1.43543585	      1.84705558	     -2.33396249	      1.82264548	      0.91858627	     -0.16707812	     -1.95035653	     -6.53428337	      0.96778668	      0.00000000	      2.85504165	    -17.60053466	      0.00000000	     -3.82274165	     -4.32515526	     -4.15169149	      0.60603226	      2.59336212	     -4.81715903	      0.00000000	     -8.74129306	     -0.69172709	     -0.17297366	     10.28035940	     -4.54153700	     35.41001791	     80.52305609	     88.32990378	      8.38198120	     -9.45885849	     33.78518289	     65.54978446	     81.63621652
      1.31666670	     -1.42555049	      1.83946772	     -2.32256978	      1.82247694	      0.91893283	     -0.16713582	     -1.94727217	     -6.54958892	      0.97633900	      0.00000000	      2.85267980	    -17.59957836	      0.00000000	     -3.81541966	     -4.33920170	     -4.15343487	      0.59812068	      2.59429072	     -4.81568235	      0.00000000	     -8.74057329	     -0.68815108	     -0.17362289	     10.27908855	     -4.54042304	     35.40779061	     80.52318597	     88.32584948	      8.37896481	     -9.46087343	     33.78952069	     65.54764022	     81.63540480
      1.33333330	     -1.42592600	      1.83940759	     -2.32156232	      1.82248338	      0.91928620	     -0.16715941	     -1.94653634	     -6.55065384	      0.97746745	      0.00000000	      2.85239301	    -17.59942873	      0.00000000	     -3.81512103	     -4.34082328	     -4.15350657	      0.59747863	      2.59439144	     -4.81550666	      0.00000000	     -8.74046862	     -0.68776146	     -0.17395978	     10.27879269	     -4.54040357	     35.40751505	     80.52319389	     88.32538367	      8.37871876	     -9.46103783	     33.79002729	     65.54743582	     81.63531197
      1.35000000	     -1.42542289	      1.83893716	     -2.32038873	      1.82244935	      0.91953787	     -0.16721970	     -1.94473648	     -6.55184349	      0.97876899	      0.00000000	      2.85204534	    -17.59914877	      0.00000000	     -3.81532084	     -4.34247764	     -4.15350571	      0.59690939	      2.59446461	     -4.81528544	      0.00000000	     -8.74046818	     -0.68750799	     -0.17448067	     10.27820894	     -4.54054055	     35.40724190	     80.52309948	     88.32492511	      8.37836832	     -9.46121576	     33.79055219	     65.54717635	     81.63522077
      1.36666670	     -1.41501078	      1.82614724	     -2.31041624	      1.82221725	      0.91982103	     -0.16737984	     -1.92795240	     -6.55483100	      0.99077455	      0.00000000	      2.84799282	    -17.59551558	      0.00000000	     -3.81668816	     -4.34237568	     -4.15267852	      0.59147124	      2.59504656	     -4.81289611	      0.00000000	     -8.74295889	     -0.68534254	     -0.18151105	     10.27175417	     -4.54435555	     35.40415114	     80.52113978	     88.32098520	      8.37559167	     -9.46223348	     33.79505631	     65.54450810	     81.63443558
      1.38333330	     -1.41818581	      1.82342452	     -2.30900874	      1.82212199	      0.92028565	     -0.16732853	     -1.92630751	     -6.55434395	      0.99271404	      0.00000000	      2.84723887	    -17.59490218	      0.00000000	     -3.81843155	     -4.34060970	     -4.15249894	      0.59107261	      2.59531771	     -4.81260903	      0.00000000	     -8.74333486	     -0.68492660	     -0.18306036	     10.27061667	     -4.54535152	     35.40347655	     80.52076810	     88.32032708	      8.37526505	     -9.46234236	     33.79576469	     65.54408610	     81.63430333
      1.40000000	     -1.47087726	      1.77414412	     -2.31897347	      1.82181199	      0.92071941	     -0.16739443	     -1.83947525	     -6.50017839	      1.15078012	      0.00000000	      2.76372363	    -17.53061923	      0.00000000	     -3.81449653	     -4.36764201	     -4.12904038	      0.45469310	      2.62325499	     -4.78439851	      0.00000000	     -8.82130551	     -0.65538112	     -0.33482100	     10.17871966	     -4.65297054	     35.32919481	     80.47517964	     88.26097491	      8.36093331	     -9.48346872	     33.84995303	     65.49474492	     81.62176461
